<?xml version="1.0" encoding="UTF-8"?>
<svg id="Layer_1" data-name="Layer 1" xmlns="http://www.w3.org/2000/svg" viewBox="0 0 642.29 212.59">
  <defs>
    <style>
      .cls-1 {
        fill: #a0dcea;
        stroke: #a0354d;
        stroke-miterlimit: 10;
        stroke-width: .25px;
      }
    </style>
  </defs>
  <path class="cls-1" d="M641.34,90.26l-34.71,2.47-9.38.61.62,9.38c.02.28,1.36,28.06-15.22,45.76-10.35,11.05-26.48,16.66-47.93,16.66-25.32,0-43.76-9.27-56.38-28.35-3.67-5.55-6.33-11.23-8.22-16.23h65.08v-44.27h-69.85V.12h-44.27v61.81c-3.99-9.47-9.68-19.12-17.79-27.84-19.07-20.51-46.14-30.91-80.47-30.91-50.76,0-78.76,26.2-93.3,48.18-6.57,9.93-11.17,20.07-14.31,29.27-3.14-9.2-7.74-19.34-14.31-29.27C186.33,29.38,158.34,3.18,107.58,3.18c-34.33,0-61.4,10.4-80.47,30.91C-2.78,66.24.12,111.04.26,112.93l.69,9.41,2.2-.16v4.86c0,47.1,38.32,85.41,85.41,85.41s85.41-38.32,85.41-85.41l-.09-9.46v-20.65c2.22,7,3.08,12.55,3.08,14.38v101.15h76.47v-101.15c0-3.5,3.11-20.58,13-35.52,12.62-19.07,31.07-28.35,56.38-28.35,21.46,0,37.58,5.6,47.93,16.66,16.58,17.71,15.23,45.48,15.22,45.71l-.62,9.4,22.01,1.53,16.78,1.22c2.91,11.49,8.22,25.57,17.28,39.26,14.55,21.98,42.54,48.18,93.3,48.18,34.33,0,61.4-10.4,80.47-30.91,29.88-32.14,26.98-76.95,26.85-78.84l-.69-9.41ZM129.61,75.54v42.05H44.93s-.51-7.72-.51-7.72c-.02-.28-1.36-28.06,15.22-45.76,10.35-11.05,26.48-16.66,47.93-16.66,25.2,0,43.59,9.19,56.21,28.09h-34.17Z"/>
  <path d="M164.43,84.99h-25.36v42.05h10.24s-121.48,0-121.48,0h0s-15.22,0-15.22,0c0,41.88,34.07,75.96,75.96,75.96s75.96-34.07,75.96-75.96h-.09v-42.05Z"/>
  <path d="M107.58,12.64c-31.6,0-56.34,9.38-73.54,27.89C6.92,69.69,9.57,110.51,9.69,112.24l25.3-1.8c-.02-.32-1.85-31.85,17.75-52.79,12.21-13.04,30.66-19.65,54.84-19.65,28.34,0,49.96,10.96,64.27,32.58,11.11,16.79,14.57,35.74,14.57,40.74v91.7h25.36v-91.7c0-7.33-3.37-31.45-18.78-54.73-13.27-20.05-38.86-43.95-85.42-43.95Z"/>
  <path d="M322.8,12.64c-46.56,0-72.15,23.9-85.42,43.95-15.41,23.28-18.78,47.4-18.78,54.73v91.7h25.36v-91.7c0-5,3.45-23.94,14.57-40.74,14.31-21.62,35.93-32.58,64.27-32.58,24.18,0,42.62,6.61,54.84,19.65,19.6,20.93,17.77,52.47,17.75,52.79l12.65.88,12.65.92c.13-1.72,2.77-42.55-24.34-71.71-17.2-18.51-41.95-27.89-73.54-27.89Z"/>
  <path d="M607.3,102.16c.02.32,1.85,31.86-17.75,52.79-12.21,13.04-30.66,19.65-54.84,19.65-28.34,0-49.96-10.96-64.27-32.58-7.18-10.85-11.16-22.6-13.08-30.91h68.37v-25.36h-69.85V9.58h-25.36v91.7c0,7.33,3.37,31.45,18.78,54.73,13.27,20.05,38.86,43.95,85.42,43.95,31.6,0,56.34-9.38,73.54-27.89,27.11-29.16,24.47-69.99,24.34-71.71l-25.3,1.8Z"/>
</svg>