<svg width="62" height="167" viewBox="0 0 62 167" fill="none" xmlns="http://www.w3.org/2000/svg">
<path d="M24.2269 166.391L21.7822 163.125C8.17237 144.914 0.0507812 115.326 0.0507812 83.9785C0.0507812 52.6308 8.37746 21.2749 21.7822 3.33384L24.2269 0.0681152H61.1268L53.3908 12.4762C42.9394 29.2387 36.4503 56.6331 36.4503 83.9785C36.4503 111.324 42.7835 136.967 53.3908 153.983L61.1268 166.391H24.2269Z" fill="#A0DCEA"/>
<path d="M29.1153 8C16.8017 24.476 9 53.8348 9 83.7911C9 113.747 16.8099 141.608 29.1153 158.084H47.2781C36.1704 140.258 29.1153 113.297 29.1153 83.7911C29.1153 54.2849 36.1704 25.8265 47.2781 8H29.1153Z" fill="black"/>
</svg>
