<svg width="57" height="155" viewBox="0 0 57 155" fill="none" xmlns="http://www.w3.org/2000/svg">
<path d="M0.0316772 154.365L7.14862 142.915C16.9063 127.22 22.7332 103.072 22.7332 78.3356C22.7332 53.5988 16.7591 27.8399 7.14862 12.3794L0.0316772 0.929077H33.9801L36.2225 3.94323C48.5517 20.4951 56.2142 48.9996 56.2142 78.3356C56.2142 107.672 48.7422 134.548 36.2225 151.351L33.9801 154.365H0.0316772Z" fill="#A0DCEA"/>
<path d="M13 9C23.2166 25.4393 29.7102 51.6918 29.7102 78.9145C29.7102 106.137 23.2166 131.004 13 147.443H29.7102C41.035 132.242 48.2213 106.544 48.2213 78.9145C48.2213 51.2847 41.035 24.2007 29.7102 9H13Z" fill="black"/>
</svg>
