<?xml version="1.0" encoding="UTF-8"?>
<svg id="Layer_1" data-name="Layer 1" xmlns="http://www.w3.org/2000/svg" viewBox="0 0 597.46 221.93">
  <defs>
    <style>
      .cls-1 {
        fill: #fff;
        opacity: .6;
      }

      .cls-2 {
        fill: #a0dcea;
        stroke: #a0354d;
        stroke-miterlimit: 10;
        stroke-width: .25px;
      }
    </style>
  </defs>
  <path class="cls-2" d="M535.62,96.93c-34.03,0-61.71,27.69-61.71,61.71s27.69,61.72,61.71,61.72,61.71-27.69,61.71-61.72-27.69-61.71-61.71-61.71ZM534.71,184.96h-.08c-6.09-.03-11.45-3.2-14.53-7.98l21.62.1v.88s6.87.03,6.87.03c-3.17,4.23-8.22,6.97-13.89,6.97Z"/>
  <path class="cls-2" d="M465.67,90.53l-34.71,2.47-9.29.7.52,9.3c.02.28,1.36,28.06-15.22,45.76-10.35,11.05-26.48,16.66-47.93,16.66-25.32,0-43.76-9.27-56.38-28.34-3.67-5.55-6.33-11.23-8.22-16.23h65.08v-44.27h-69.85V.4h-44.27v101.15c0,10.1,4.25,35.63,20.35,59.95,14.55,21.98,42.54,48.18,93.3,48.18,34.33,0,61.4-10.4,80.47-30.91,29.88-32.14,26.98-76.95,26.85-78.84l-.69-9.41Z"/>
  <path class="cls-2" d="M243.27,119.77l-142.32-47.14c1.26-2.48,2.84-5.11,4.82-7.71,9.71-12.78,24.87-19.27,45.05-19.27,18.63,0,32.12,4.34,40.11,12.91,10.14,10.88,9.41,26.75,9.41,26.81l9.43.67-.77,9.33,34.7,2.88.78-9.42c.29-3.52,2.19-35.1-20.83-60.11C206.95,10.58,182.45,1.38,150.82,1.38c-43.5,0-67.81,20.16-80.55,37.07-12.68,16.84-18.46,36.98-18.46,48.56v15.99l146.52,48.53c-1.37,4.37-3.64,9.07-7.4,13.1-7.99,8.57-21.49,12.91-40.11,12.91-20.19,0-35.34-6.48-45.05-19.27-8.07-10.62-9.58-21.56-9.68-22.39l-.12-9.16h-44.15v9.46c0,11.58,5.78,31.71,18.46,48.56,12.73,16.91,37.04,37.07,80.55,37.07,31.62,0,56.12-9.2,72.82-27.35,23.02-25.01,21.12-56.59,20.83-60.11l-1.21-14.58Z"/>
  <rect class="cls-2" x=".12" y=".12" width="44.27" height="212.34"/>
  <path class="cls-1" d="M535.62,205.83c-26.02,0-47.19-21.17-47.19-47.19s21.17-47.19,47.19-47.19,47.19,21.17,47.19,47.19-21.17,47.19-47.19,47.19Z"/>
  <path d="M535.62,116.53c23.26,0,42.12,18.86,42.12,42.12s-18.86,42.12-42.12,42.12-42.12-18.86-42.12-42.12,18.86-42.12,42.12-42.12M535.62,106.39c-28.82,0-52.26,23.44-52.26,52.26s23.44,52.26,52.26,52.26,52.26-23.44,52.26-52.26-23.44-52.26-52.26-52.26h0Z"/>
  <path d="M546.32,167.65h0s-23.21-.1-23.21-.1h0s-3.34-.01-3.34-.01l-4.27-.02h0s-7.61-.03-7.61-.03c-.07,14.79,11.91,26.87,26.7,26.94h.12c14.73,0,26.75-11.95,26.82-26.7l-15.22-.07Z"/>
  <rect x="537.81" y="144.93" width="37.15" height="10.14" transform="translate(403.94 705.71) rotate(-89.75)"/>
  <path d="M209.78,85.96l25.27,2.1c.1-1.23,2.27-30.5-18.36-52.93-14.84-16.12-37-24.3-65.87-24.3-39.61,0-61.55,18.11-72.99,33.31-12.15,16.13-16.55,34.48-16.55,42.87v9.16l148.08,49.05c-.92,7.05-3.65,17.45-11.5,25.86-9.85,10.56-25.67,15.92-47.03,15.92-23.3,0-40.99-7.74-52.59-23-9.45-12.44-11.57-25.72-11.6-27.81h-25.36c0,8.39,4.41,26.74,16.55,42.87,11.44,15.19,33.39,33.3,72.99,33.3,28.87,0,51.03-8.17,65.87-24.3,20.64-22.42,18.47-51.69,18.36-52.93l-.69-8.35-145.92-48.33c1.64-5.35,4.62-12.42,9.8-19.25,11.59-15.26,29.29-23,52.59-23,21.36,0,37.18,5.36,47.03,15.92,13.14,14.09,11.94,33.73,11.92,33.93v-.08Z"/>
  <path d="M456.92,100.63l-25.3,1.8c.02.32,1.85,31.85-17.75,52.79-12.21,13.04-30.66,19.65-54.83,19.65-28.34,0-49.96-10.96-64.27-32.58-7.18-10.85-11.16-22.6-13.08-30.91h68.37v-25.36h-69.85V9.86h-25.36v91.7c0,7.33,3.37,31.45,18.78,54.73,13.27,20.05,38.86,43.95,85.42,43.95,31.6,0,56.34-9.38,73.54-27.89,27.11-29.16,24.47-69.99,24.34-71.71Z"/>
  <rect x="9.58" y="9.58" width="25.36" height="193.43"/>
</svg>