<svg width="32" height="37" viewBox="0 0 32 37" fill="none" xmlns="http://www.w3.org/2000/svg">
<path d="M19.8209 30.6895C25.8222 27.7044 28.8279 21.541 26.5342 16.9231C24.2405 12.3053 17.516 10.9817 11.5147 13.9668C5.51344 16.9519 2.50785 23.1153 4.80154 27.7332C7.09524 32.351 13.8196 33.6746 19.8209 30.6895Z" fill="#121212"/>
<path d="M19.163 2.04439L17.1406 3.05035L24.2053 17.2736L26.2277 16.2676L19.163 2.04439Z" fill="#121212"/>
<path d="M16.1152 1.11007L21.2516 1.62641C22.5323 1.7558 23.8228 1.74102 25.0998 1.58205C25.4717 1.53645 26.1958 1.30972 26.5468 1.17909L27.9051 0.673828L29.3853 3.37384L27.5036 3.97028C27.2647 4.04053 26.2845 4.29439 26.0419 4.34491C24.7624 4.61233 23.4066 4.66285 22.1259 4.52606L17.6878 4.165L16.1165 1.11007H16.1152Z" fill="#121212"/>
<path d="M18.2173 5.33326L23.3536 5.8496C24.6762 5.87794 25.8965 5.78675 27.1169 5.50948C27.4826 5.42691 28.2129 5.23715 28.5639 5.10652L29.9221 4.60126L31.4023 7.30127L29.5145 7.86075C29.2756 7.93099 28.2942 8.17498 28.0528 8.23537C26.8177 8.54591 25.5086 8.88727 24.2267 8.74925L19.7886 8.38819L18.2173 5.33326Z" fill="#121212"/>
</svg>
