<svg width="67" height="67" viewBox="0 0 67 67" fill="none" xmlns="http://www.w3.org/2000/svg">
<circle cx="33.5" cy="33.5" r="33.5" fill="#F8F8F8"/>
<path d="M47 17L28.3532 22.9532V40.2009C27.0583 38.9824 25.1735 38.2101 23.068 38.2101C19.1645 38.2101 16 40.8492 16 44.105C16 47.3609 19.1645 50 23.068 50C25.6745 50 27.9459 48.8199 29.1714 47.0676C29.3449 46.8456 29.501 46.6139 29.6225 46.3611C29.7557 46.0835 29.8647 45.7662 29.9542 45.4167C29.9868 45.2975 30.0125 45.1762 30.0361 45.0549C30.0555 44.9562 30.0749 44.8568 30.0916 44.7526C30.0944 44.7307 30.0985 44.7095 30.1013 44.6875C30.1853 44.1386 30.2297 43.5232 30.2297 42.8352V28.3212L45.0694 23.546V34.9124C43.7807 33.7734 41.9591 33.0594 39.9334 33.0594C36.0298 33.0594 32.8654 35.6984 32.8654 38.9543C32.8654 42.2102 36.0298 44.8493 39.9334 44.8493C43.8369 44.8493 47.0014 42.2102 47.0014 38.9543C47.0014 38.8214 46.9882 38.6905 46.9778 38.5596C46.9924 38.293 47.0014 38.0175 47.0014 37.7235V17H47Z" fill="#61B3C1"/>
</svg>
