<svg width="253" height="66" viewBox="0 0 253 66" fill="none" xmlns="http://www.w3.org/2000/svg">
<rect x="0.443115" y="0.886719" width="254.557" height="64.2267" rx="32.1133" fill="#E9EFDA"/>
<path d="M33.3396 33L46.2633 40.4615V25.5386L33.3396 33Z" fill="#61B3C1"/>
<path d="M41.9556 33L54.8792 40.4615V25.5386L41.9556 33Z" fill="#61B3C1"/>
<path d="M223.67 33L210.746 40.4615V25.5386L223.67 33Z" fill="#61B3C1"/>
<path d="M215.054 33L202.131 40.4615V25.5386L215.054 33Z" fill="#61B3C1"/>
<circle cx="128.505" cy="32.6083" r="26.2389" fill="#F8F8F8"/>
<path d="M139.079 19.6848L124.474 24.3477V37.8569C123.459 36.9026 121.983 36.2976 120.334 36.2976C117.276 36.2976 114.798 38.3647 114.798 40.9149C114.798 43.4651 117.276 45.5321 120.334 45.5321C122.375 45.5321 124.154 44.6078 125.114 43.2353C125.25 43.0614 125.373 42.88 125.468 42.6819C125.572 42.4645 125.657 42.216 125.728 41.9423C125.753 41.8489 125.773 41.7538 125.792 41.6588C125.807 41.5815 125.822 41.5037 125.835 41.4221C125.837 41.405 125.841 41.3883 125.843 41.3711C125.909 40.9412 125.943 40.4592 125.943 39.9203V28.5521L137.567 24.812V33.7147C136.557 32.8226 135.13 32.2633 133.544 32.2633C130.486 32.2633 128.008 34.3304 128.008 36.8806C128.008 39.4307 130.486 41.4978 133.544 41.4978C136.601 41.4978 139.08 39.4307 139.08 36.8806C139.08 36.7764 139.069 36.6739 139.061 36.5714C139.073 36.3626 139.08 36.1468 139.08 35.9165V19.6848H139.079Z" fill="#61B3C1"/>
</svg>
