<?xml version="1.0" encoding="UTF-8"?>
<svg id="Layer_1" data-name="Layer 1" xmlns="http://www.w3.org/2000/svg" viewBox="0 0 241.51 172.46">
  <defs>
    <style>
      .cls-1 {
        fill: #fff;
      }
    </style>
  </defs>
  <ellipse class="cls-1" cx="70.22" cy="86.57" rx="61.43" ry="75.58"/>
  <ellipse class="cls-1" cx="171.35" cy="86.57" rx="61.43" ry="75.58"/>
  <path d="M170.66,172.46c-19.01,0-36.72-8.96-49.9-24.93-13.18,15.97-30.89,24.93-49.9,24.93C31.79,172.46,0,133.78,0,86.23S31.79,0,70.86,0c19.01,0,36.72,8.96,49.9,24.93C133.94,8.96,151.65,0,170.66,0c39.07,0,70.86,38.68,70.86,86.23s-31.79,86.23-70.86,86.23ZM120.76,119.74l6.55,10.5c10.62,17.02,26.42,26.78,43.35,26.78,30.55,0,55.41-31.75,55.41-70.78S201.21,15.45,170.66,15.45c-16.93,0-32.73,9.76-43.35,26.78l-6.55,10.5-6.55-10.5c-10.62-17.02-26.42-26.78-43.35-26.78-30.55,0-55.41,31.75-55.41,70.78s24.86,70.78,55.41,70.78c16.93,0,32.73-9.76,43.35-26.78l6.55-10.5Z"/>
  <polygon points="66.65 124.98 57.02 112.9 91.84 85.17 57.26 59.74 66.41 47.3 117.25 84.68 66.65 124.98"/>
  <ellipse cx="183.49" cy="86.23" rx="22.82" ry="38.6"/>
</svg>