<svg width="228" height="143" viewBox="0 0 228 143" fill="none" xmlns="http://www.w3.org/2000/svg">
<path d="M15.0285 51.7379L12.3712 48.9615L10.5813 45.8818L7.79634 45.0253L6.48061 42.3954V40.4221L5.02003 39.7707L3.68879 37.7233L0.884888 25.4597L1.48154 22.5713L16.6529 5.99914L22.228 1.86646L25.3595 0.887573L42.2691 4.23267L57.0163 6.86429L59.8978 8.59284L63.2156 12.8289L68.3164 27.5967L69.689 32.9099L72.6585 38.2524L50.348 50.9658L47.2354 48.3014L38.1754 46.8934L26.1596 51.7379H15.0285Z" fill="#B4E6F1"/>
<path d="M25.4075 1.77509L42.1016 5.0771L56.7091 7.68459L59.3182 9.24943L62.448 13.246L67.4919 27.8448L68.8835 33.2321L71.4925 37.9249L50.4512 49.9162L47.6128 47.4863L38.0768 46.0041L25.9973 50.8762H15.4008L13.0693 48.441L11.1621 45.158L8.40652 44.31L7.34773 42.192V39.862L5.6078 39.0865L4.499 37.382L1.76925 25.4493L2.2814 22.9779L17.2338 6.64194L22.6243 2.6454L25.4075 1.77681M25.311 0L24.8919 0.130978L22.1087 0.999565L21.8294 1.08746L21.5948 1.26152L16.2043 5.25806L16.0715 5.35629L15.9595 5.47865L1.00533 21.8147L0.684593 22.1645L0.588026 22.6281L0.0758743 25.0994L0 25.4665L0.0844963 25.8319L2.81425 37.7646L2.88322 38.0628L3.05049 38.3195L4.15929 40.024L4.43692 40.4514L4.90251 40.6582L5.61987 40.9787V42.597L5.80266 42.9606L6.86145 45.0787L7.19081 45.7387L7.8961 45.9559L10.0068 46.6039L11.576 49.3027L11.6795 49.4802L11.8209 49.6284L14.1523 52.0636L14.661 52.5961H26.3284L26.6388 52.4703L38.2786 47.7758L46.861 49.1097L49.3286 51.2208L50.2512 52.0102L51.3048 51.4087L72.3461 39.4173L73.8274 38.5729L72.9997 37.0839L70.4975 32.5841L69.1611 27.4105L69.1439 27.3433L69.1215 27.2778L64.0775 12.679L63.9827 12.4067L63.8051 12.1792L60.6753 8.18265L60.4787 7.93104L60.2045 7.76731L57.5955 6.20248L57.323 6.03875L57.0109 5.98361L42.4189 3.37957L25.7421 0.0844461L25.311 0Z" fill="#8ACBD6"/>
<path d="M12.0745 44.4064L11.2157 43.5602L15.4922 39.2224L18.8462 38.6865L20.9104 37.8368L27.3648 33.2371L31.4086 27.9394L36.0731 25.942L36.5491 27.0502L32.176 28.9235L28.2133 34.1143L21.4984 38.8985L19.1756 39.8549L16.0734 40.3513L12.0745 44.4064Z" fill="#61B3C1"/>
<path d="M14.1596 41.8991H11.2522L8.27588 40.4238L8.81217 39.3416L11.535 40.6927H14.1596V41.8991Z" fill="#61B3C1"/>
<path d="M27.4575 34.1816L23.9018 31.8567L19.0665 31.3673L16.3402 32.1721L15.9988 31.0157L18.9527 30.142L24.3174 30.6848L28.1197 33.1717L27.4575 34.1816Z" fill="#61B3C1"/>
<path d="M24.5882 31.6378L23.6311 30.9036L24.733 29.4715V27.2311H25.9401V29.8817L24.5882 31.6378Z" fill="#61B3C1"/>
<path d="M18.9242 30.7538H17.7171V28.2135L16.6549 25.2269L17.7913 24.8236L18.9242 28.005V30.7538Z" fill="#61B3C1"/>
<path d="M32.3864 28.536L31.1982 28.3292L31.5811 26.1233L32.7399 24.0225L33.7969 24.6067L32.7364 26.5283L32.3864 28.536Z" fill="#61B3C1"/>
<path d="M15.0066 46.4246L16.869 45.2389L22.0215 44.9304L22.6544 45.3423L23.7028 48.484L23.1717 49.4629L16.869 49.2579L15.955 48.6909L15.0066 47.1967V46.4246Z" fill="#61B3C1"/>
<path d="M163.321 73.747L163.374 69.6978L167.737 64.9577L172.65 63.1358L178.932 59.4921L178.362 57.7728L175.829 57.4092L170.693 59.7113L167.241 63.8127L162.963 68.8799L157.876 68.4623L156.475 66.1932L156.906 65.0378L153.199 66.5882L151.191 65.7286L149.961 65.5511L146.722 67.2007L141.897 65.2344V62.619L144.569 57.7607L142.697 57.2143L141.825 55.3698L143.009 52.1192L157.188 40.9199L161.372 38.5099L167.83 37.525L175.025 35.8614L178.319 35.6926L196.489 38.8962L220.46 50.2034L226.807 59.8592L203.816 75.1008L200.619 70.801L198.188 69.5916L193.34 70.6235L180.615 73.1815L174.956 75.5759L165.994 76.5086L163.321 73.747Z" fill="#F1F6E5"/>
<path d="M178.265 36.566L196.23 39.733L219.881 50.8889L225.614 59.6103L204.015 73.9296L201.176 70.1118L198.298 68.6797L193.163 69.7742L180.363 72.3461L174.742 74.7248L166.313 75.6019L164.177 73.3971L164.221 70.0492L168.219 65.7076L173.007 63.931L179.962 59.8956L178.999 56.9897L175.703 56.5164L170.166 58.9995L166.589 63.2506L162.594 67.9819L158.369 67.6339L157.423 66.1009L158.556 63.0609L159.497 61.3991L158.309 61.5435L156.703 64.185L153.198 65.6519L151.416 64.888L149.813 64.6566L146.679 66.2505L142.748 64.6496V62.8486L145.837 57.2298L143.297 56.4885L142.748 55.3279L143.721 52.6585L157.659 41.6489L161.652 39.3502L167.985 38.3844L175.138 36.7296L178.264 36.5713M178.37 34.819L178.18 34.8294L175.055 34.9878L174.906 34.9947L174.76 35.0278L167.668 36.6687L161.4 37.624L161.087 37.671L160.812 37.8294L156.819 40.128L156.712 40.1907L156.614 40.269L142.676 51.2804L142.291 51.5849L142.122 52.0495L141.148 54.7188L140.895 55.4114L141.21 56.0779L141.759 57.2385L142.091 57.9415L142.828 58.1573L143.294 58.293L141.258 61.9942L141.041 62.391V65.8225L142.115 66.261L146.046 67.8619L146.759 68.1525L147.447 67.8027L150.104 66.4506L150.959 66.5742L152.536 67.2493L153.193 67.5295L153.851 67.2546L155.654 66.4994L155.976 67.0196L156.922 68.5527L157.379 69.2905L158.234 69.3601L162.459 69.7081L162.517 69.7133L162.514 70.0196L162.47 73.3676L162.459 74.0949L162.961 74.6135L165.097 76.8182L165.674 77.4133L166.49 77.328L174.918 76.451L175.168 76.4249L175.4 76.3257L180.864 74.0149L193.497 71.4761H193.507L193.517 71.4726L198.076 70.5016L200.06 71.49L202.654 74.9772L203.615 76.2718L204.951 75.3861L226.549 61.0667L228 60.1062L227.039 58.6428L221.306 49.9214L221.039 49.5159L220.603 49.3106L196.951 38.1565L196.745 38.059L196.523 38.019L178.558 34.852L178.37 34.819ZM171.216 60.4281L175.951 58.3052L177.72 58.5592L177.896 59.0917L172.289 62.344L168.385 63.7917L171.216 60.4281Z" fill="#D5DDBC"/>
<path d="M151.189 64.0736L150.244 63.3236L152.973 59.7651L158.26 55.6288L163.158 52.8134L167.268 49.7751L169.284 48.1725L170.021 49.133L167.982 50.7531L163.777 53.8557L158.886 56.6677L153.823 60.6369L151.189 64.0736Z" fill="#D5DDBC"/>
<path d="M161.522 60.4001L160.555 59.6815L162.425 57.0748L166.794 53.8904L170.977 51.985L173.332 52.3748L175.061 54.275L174.184 55.1033L172.733 53.5093L171.139 53.2466L167.393 54.9519L163.279 57.9518L161.522 60.4001Z" fill="#D5DDBC"/>
<path d="M181.563 58.3801L177.452 54.3187L176.385 51.3344L173.227 49.7613L169.681 48.8582L162.032 49.6273L155.713 53.0849L151.05 57.0158L147.318 58.1887L146.964 57.0263L150.469 55.9231L155.043 52.0705L161.677 48.4389L169.77 47.6262L173.641 48.6111L177.344 50.4574L178.483 53.64L181.138 56.2624L181.735 54.8198L183.774 51.9556L185.615 50.8785L186.212 51.9347L184.594 52.8813L182.786 55.4219L181.563 58.3801Z" fill="#D5DDBC"/>
<path d="M166.169 71.0915V72.8247L167.318 74.0636L169.876 73.8479L172.763 73.6025L173.218 72.4906L172.715 69.6594L171.47 69.2018L168.909 69.9413L166.169 71.0915Z" fill="#D5DDBC"/>
<path d="M180.727 57.4771L180.185 58.053L181.05 58.895L181.592 58.3191L180.727 57.4771Z" fill="#D5DDBC"/>
<path d="M69.9296 141.648L62.7428 133.746L57.3638 132.124L54.103 130.25L54.169 125.153L56.1651 122.94L53.0794 116.944L52.9044 113.356L56.3121 110.427L61.0042 109.652L61.0587 109.512L53.8421 106.447L48.3921 103.634L43.1072 102.509L38.8823 100.252L38.1443 95.0866L41.7022 93.1461L48.8841 93.9002L60.5667 98.2493L74.9718 101.903L87.5823 107.921L101.208 112.212L117.22 118.747L107.124 138.696L103.46 137.458L99.4069 137.208L96.4614 138.701L92.0565 139.67L85.8355 138.856L76.6295 136.907L75.8469 139.772L72.9659 141.648H69.9296Z" fill="#E090A5"/>
<path d="M41.8743 93.9814L48.6914 94.6981L60.3162 99.0261L74.6849 102.67L87.2756 108.678L100.923 112.975L116.086 119.166L106.706 137.698L103.622 136.655L99.2306 136.384L96.1779 137.932L92.0206 138.846L85.9762 138.054L76.0355 135.951L75.1307 139.265L72.7169 140.837H70.2982L63.2038 133.037L57.6976 131.376L54.9355 129.79L54.9916 125.47L57.1561 123.068L53.8954 116.736L53.7484 113.713L56.679 111.194L61.6056 110.378L62.1125 109.076L54.1958 105.716L48.6748 102.867L43.3949 101.742L39.6405 99.7347L39.0395 95.5302L41.8727 93.9847M41.5309 92.3107L41.0736 92.5593L38.2404 94.1065L37.2482 94.6477L37.4067 95.7545L38.0076 99.959L38.1232 100.77L38.8546 101.16L42.609 103.167L42.817 103.278L43.0482 103.326L48.1085 104.404L53.4314 107.151L53.4876 107.18L53.5453 107.204L58.3861 109.26L56.4082 109.587L55.9476 109.663L55.5959 109.965L52.6653 112.485L52.0644 113.001L52.1024 113.786L52.2493 116.809L52.2658 117.155L52.426 117.466L55.1782 122.813L53.7583 124.388L53.3505 124.841L53.3423 125.446L53.2861 129.766L53.2746 130.713L54.105 131.191L56.8672 132.777L57.0323 132.871L57.2155 132.927L62.2825 134.456L69.0698 141.919L69.5618 142.46H73.2155L73.6299 142.19L76.0421 140.619L76.5638 140.279L76.7256 139.684L77.2225 137.862L85.6295 139.64L85.6939 139.653L85.7583 139.662L91.8027 140.453L92.0932 140.49L92.3805 140.427L96.5378 139.514L96.7458 139.468L96.934 139.372L99.5822 138.03L103.297 138.259L106.171 139.231L107.54 139.694L108.186 138.418L117.565 119.886L118.354 118.327L116.72 117.661L101.557 111.47L101.492 111.444L101.426 111.423L87.8898 107.162L75.4048 101.204L75.2562 101.132L75.096 101.092L60.8148 97.4708L49.2758 93.1769L49.0777 93.1038L48.8664 93.081L42.0493 92.3659L41.5309 92.3107Z" fill="#C06379"/>
<path d="M71.9948 124.495H70.8391V120.232L68.4071 116.044L62.7507 110.504L63.5663 109.698L69.3333 115.345L71.9948 119.93V124.495Z" fill="#89263D"/>
<path d="M65.5035 120.468L63.3721 118.978L64.0407 118.05L65.7859 119.27L67.5293 118.991L70.0224 117.658L70.5755 118.657L67.9091 120.083L65.5035 120.468Z" fill="#89263D"/>
<path d="M65.6734 119.276L64.644 119.793L66.4897 123.352L67.5191 122.835L65.6734 119.276Z" fill="#89263D"/>
<path d="M72.7085 125.748L67.9767 124.172L63.2845 123.348L58.4768 123.664L58.3992 122.528L63.3489 122.203L68.3069 123.079L72.8423 124.591L79.6065 123.937L83.0043 122.571L83.4418 123.624L79.8888 125.054L72.7085 125.748Z" fill="#89263D"/>
<path d="M73.9093 136.291L68.8308 134.789L64.6306 133.957L64.8585 132.842L69.1379 133.692L74.2428 135.201L73.9093 136.291Z" fill="#89263D"/>
<path d="M56.3552 127.681L56.2991 128.843L57.6017 129.867L62.7281 131.476L63.5388 131.211L64.2289 129.623L63.7072 128.578L57.4795 127.102L56.3552 127.681Z" fill="#89263D"/>
</svg>
