<?xml version="1.0" encoding="UTF-8"?>
<svg id="Layer_1" data-name="Layer 1" xmlns="http://www.w3.org/2000/svg" viewBox="0 0 65.16 61.35">
  <path d="M49.9,23.32h-8.17v13.55h3.3s-39.15,0-39.15,0h0s-4.9,0-4.9,0c0,13.5,10.98,24.48,24.48,24.48s24.48-10.98,24.48-24.48h-.03v-13.55Z"/>
  <path d="M31.58,0C21.4,0,13.43,3.02,7.88,8.99-.85,18.38,0,31.54.04,32.1l8.15-.58c0-.1-.6-10.27,5.72-17.01,3.93-4.2,9.88-6.33,17.67-6.33,9.13,0,16.1,3.53,20.71,10.5,3.58,5.41,4.69,11.52,4.69,13.13v29.55h8.17v-29.55c0-2.36-1.09-10.14-6.05-17.64C54.83,7.7,46.59,0,31.58,0Z"/>
</svg>