<svg width="257" height="176" viewBox="0 0 257 176" fill="none" xmlns="http://www.w3.org/2000/svg">
<g filter="url(#filter0_d_2622_1031)">
<rect x="1" width="125" height="126" fill="url(#paint0_linear_2622_1031)"/>
</g>
<path d="M63.5695 120.677C95.1324 120.677 120.719 94.8856 120.719 63.0702C120.719 31.2549 95.1324 5.46338 63.5695 5.46338C32.0066 5.46338 6.4198 31.2549 6.4198 63.0702C6.4198 94.8856 32.0066 120.677 63.5695 120.677Z" fill="url(#paint1_linear_2622_1031)"/>
<ellipse cx="63.6694" cy="62.4877" rx="39.6341" ry="39.9512" fill="#121212"/>
<path d="M63.5698 94.5922C80.8407 94.5922 94.8416 80.4793 94.8416 63.0702C94.8416 45.6611 80.8407 31.5482 63.5698 31.5482C46.2988 31.5482 32.298 45.6611 32.298 63.0702C32.298 80.4793 46.2988 94.5922 63.5698 94.5922Z" fill="#DCFAFF"/>
<g filter="url(#filter1_f_2622_1031)">
<path d="M63.1612 94.2439C79.9056 94.2439 93.4796 80.5613 93.4796 63.6829C93.4796 46.8046 79.9056 33.1219 63.1612 33.1219C46.4168 33.1219 32.8428 46.8046 32.8428 63.6829C32.8428 80.5613 46.4168 94.2439 63.1612 94.2439Z" fill="url(#paint2_linear_2622_1031)"/>
</g>
<ellipse cx="63.6693" cy="62.4877" rx="10.5014" ry="10.5854" fill="#61B3C1"/>
<g filter="url(#filter2_i_2622_1031)">
<path d="M63.6727 66.3221C65.7913 66.3221 67.5088 64.5909 67.5088 62.4554C67.5088 60.3198 65.7913 58.5886 63.6727 58.5886C61.5541 58.5886 59.8367 60.3198 59.8367 62.4554C59.8367 64.5909 61.5541 66.3221 63.6727 66.3221Z" fill="white"/>
</g>
<path d="M63.6689 12.3597C91.4993 12.3597 114.071 35.1027 114.071 63.1703C114.071 91.2381 91.4994 113.982 63.6689 113.982C35.8386 113.982 13.2676 91.2379 13.2676 63.1703C13.2678 35.1028 35.8388 12.36 63.6689 12.3597Z" stroke="#4B4B4B" stroke-width="1.5"/>
<path d="M63.6698 9.96948C92.8097 9.9697 116.442 33.7829 116.442 63.1707C116.442 92.5584 92.8097 116.372 63.6698 116.372C34.5297 116.372 10.8964 92.5585 10.8964 63.1707C10.8964 33.7828 34.5297 9.96948 63.6698 9.96948Z" stroke="#4B4B4B" stroke-width="1.5"/>
<path d="M63.6693 14.4084C90.3771 14.4084 112.038 36.2341 112.038 63.1702C112.038 90.1064 90.3773 111.933 63.6693 111.933C36.9614 111.933 15.3002 90.1064 15.3002 63.1702C15.3004 36.2342 36.9615 14.4085 63.6693 14.4084Z" stroke="#4B4B4B" stroke-width="1.5"/>
<path d="M63.6691 20.5548C86.8196 20.5548 105.603 39.5499 105.603 63.0001C105.603 86.4503 86.8195 105.445 63.6691 105.445C40.5188 105.445 21.7366 86.4502 21.7365 63.0001C21.7365 39.55 40.5187 20.555 63.6691 20.5548Z" stroke="#4B4B4B" stroke-width="1.5"/>
<g filter="url(#filter3_d_2622_1031)">
<rect x="64" y="21" width="126" height="126" fill="url(#paint3_linear_2622_1031)"/>
</g>
<path d="M127.07 141.677C158.885 141.677 184.677 115.886 184.677 84.0702C184.677 52.2549 158.885 26.4634 127.07 26.4634C95.2546 26.4634 69.4631 52.2549 69.4631 84.0702C69.4631 115.886 95.2546 141.677 127.07 141.677Z" fill="url(#paint4_linear_2622_1031)"/>
<ellipse cx="127.171" cy="83.4877" rx="39.9512" ry="39.9512" fill="#121212"/>
<path d="M127.07 115.592C144.479 115.592 158.592 101.479 158.592 84.0702C158.592 66.6611 144.479 52.5482 127.07 52.5482C109.661 52.5482 95.5483 66.6611 95.5483 84.0702C95.5483 101.479 109.661 115.592 127.07 115.592Z" fill="#E090A5"/>
<g filter="url(#filter4_f_2622_1031)">
<path d="M126.658 115.244C143.537 115.244 157.219 101.561 157.219 84.6829C157.219 67.8046 143.537 54.1219 126.658 54.1219C109.78 54.1219 96.0974 67.8046 96.0974 84.6829C96.0974 101.561 109.78 115.244 126.658 115.244Z" fill="#C06379"/>
</g>
<ellipse cx="127.171" cy="83.4877" rx="10.5854" ry="10.5854" fill="#89263D"/>
<g filter="url(#filter5_i_2622_1031)">
<path d="M127.174 87.3221C129.31 87.3221 131.041 85.5909 131.041 83.4554C131.041 81.3198 129.31 79.5886 127.174 79.5886C125.039 79.5886 123.307 81.3198 123.307 83.4554C123.307 85.5909 125.039 87.3221 127.174 87.3221Z" fill="white"/>
</g>
<circle cx="127.171" cy="84.1707" r="50.811" stroke="#4B4B4B" stroke-width="1.5"/>
<circle cx="127.171" cy="84.1707" r="53.2012" stroke="#4B4B4B" stroke-width="1.5"/>
<circle cx="127.171" cy="84.1706" r="48.7622" stroke="#4B4B4B" stroke-width="1.5"/>
<path d="M127.171 41.5548C150.515 41.5548 169.445 60.5555 169.445 84.0001C169.445 107.445 150.515 126.445 127.171 126.445C103.826 126.445 84.8963 107.445 84.8962 84.0001C84.8962 60.5555 103.826 41.5548 127.171 41.5548Z" stroke="#4B4B4B" stroke-width="1.5"/>
<g filter="url(#filter6_d_2622_1031)">
<rect x="128" y="42" width="125" height="126" fill="url(#paint5_linear_2622_1031)"/>
</g>
<path d="M190.57 162.677C222.132 162.677 247.719 136.886 247.719 105.07C247.719 73.2549 222.132 47.4634 190.57 47.4634C159.007 47.4634 133.42 73.2549 133.42 105.07C133.42 136.886 159.007 162.677 190.57 162.677Z" fill="url(#paint6_linear_2622_1031)"/>
<ellipse cx="190.67" cy="104.488" rx="39.6341" ry="39.9512" fill="#121212"/>
<path d="M190.57 136.592C207.841 136.592 221.842 122.479 221.842 105.07C221.842 87.6611 207.841 73.5482 190.57 73.5482C173.299 73.5482 159.298 87.6611 159.298 105.07C159.298 122.479 173.299 136.592 190.57 136.592Z" fill="#F9FCF0"/>
<g filter="url(#filter7_f_2622_1031)">
<path d="M190.161 136.244C206.906 136.244 220.48 122.561 220.48 105.683C220.48 88.8046 206.906 75.1219 190.161 75.1219C173.417 75.1219 159.843 88.8046 159.843 105.683C159.843 122.561 173.417 136.244 190.161 136.244Z" fill="#E9EFDA"/>
</g>
<ellipse cx="190.67" cy="104.488" rx="10.5014" ry="10.5854" fill="#C7D1AA"/>
<g filter="url(#filter8_i_2622_1031)">
<path d="M190.673 108.322C192.791 108.322 194.509 106.591 194.509 104.455C194.509 102.32 192.791 100.589 190.673 100.589C188.554 100.589 186.837 102.32 186.837 104.455C186.837 106.591 188.554 108.322 190.673 108.322Z" fill="white"/>
</g>
<path d="M190.669 54.3597C218.5 54.3597 241.071 77.1027 241.072 105.17C241.072 133.238 218.5 155.982 190.669 155.982C162.839 155.982 140.268 133.238 140.268 105.17C140.268 77.1028 162.839 54.36 190.669 54.3597Z" stroke="#4B4B4B" stroke-width="1.5"/>
<path d="M190.67 51.9695C219.81 51.9697 243.442 75.7829 243.442 105.171C243.442 134.558 219.81 158.372 190.67 158.372C161.53 158.372 137.896 134.559 137.896 105.171C137.897 75.7828 161.53 51.9695 190.67 51.9695Z" stroke="#4B4B4B" stroke-width="1.5"/>
<path d="M190.669 56.4084C217.377 56.4084 239.038 78.2341 239.039 105.17C239.039 132.106 217.377 153.933 190.669 153.933C163.962 153.933 142.3 132.106 142.3 105.17C142.301 78.2342 163.962 56.4085 190.669 56.4084Z" stroke="#4B4B4B" stroke-width="1.5"/>
<path d="M190.669 62.5548C213.82 62.5548 232.603 81.5499 232.603 105C232.603 128.45 213.82 147.445 190.669 147.445C167.519 147.445 148.737 128.45 148.737 105C148.737 81.55 167.519 62.555 190.669 62.5548Z" stroke="#4B4B4B" stroke-width="1.5"/>
<defs>
<filter id="filter0_d_2622_1031" x="-3" y="0" width="133" height="134" filterUnits="userSpaceOnUse" color-interpolation-filters="sRGB">
<feFlood flood-opacity="0" result="BackgroundImageFix"/>
<feColorMatrix in="SourceAlpha" type="matrix" values="0 0 0 0 0 0 0 0 0 0 0 0 0 0 0 0 0 0 127 0" result="hardAlpha"/>
<feOffset dy="4"/>
<feGaussianBlur stdDeviation="2"/>
<feComposite in2="hardAlpha" operator="out"/>
<feColorMatrix type="matrix" values="0 0 0 0 0 0 0 0 0 0 0 0 0 0 0 0 0 0 0.25 0"/>
<feBlend mode="normal" in2="BackgroundImageFix" result="effect1_dropShadow_2622_1031"/>
<feBlend mode="normal" in="SourceGraphic" in2="effect1_dropShadow_2622_1031" result="shape"/>
</filter>
<filter id="filter1_f_2622_1031" x="28.8428" y="29.1219" width="68.637" height="69.1219" filterUnits="userSpaceOnUse" color-interpolation-filters="sRGB">
<feFlood flood-opacity="0" result="BackgroundImageFix"/>
<feBlend mode="normal" in="SourceGraphic" in2="BackgroundImageFix" result="shape"/>
<feGaussianBlur stdDeviation="2" result="effect1_foregroundBlur_2622_1031"/>
</filter>
<filter id="filter2_i_2622_1031" x="58.8367" y="58.5886" width="8.67212" height="8.73352" filterUnits="userSpaceOnUse" color-interpolation-filters="sRGB">
<feFlood flood-opacity="0" result="BackgroundImageFix"/>
<feBlend mode="normal" in="SourceGraphic" in2="BackgroundImageFix" result="shape"/>
<feColorMatrix in="SourceAlpha" type="matrix" values="0 0 0 0 0 0 0 0 0 0 0 0 0 0 0 0 0 0 127 0" result="hardAlpha"/>
<feOffset dx="-1" dy="1"/>
<feGaussianBlur stdDeviation="1.5"/>
<feComposite in2="hardAlpha" operator="arithmetic" k2="-1" k3="1"/>
<feColorMatrix type="matrix" values="0 0 0 0 0 0 0 0 0 0 0 0 0 0 0 0 0 0 0.25 0"/>
<feBlend mode="normal" in2="shape" result="effect1_innerShadow_2622_1031"/>
</filter>
<filter id="filter3_d_2622_1031" x="60" y="21" width="134" height="134" filterUnits="userSpaceOnUse" color-interpolation-filters="sRGB">
<feFlood flood-opacity="0" result="BackgroundImageFix"/>
<feColorMatrix in="SourceAlpha" type="matrix" values="0 0 0 0 0 0 0 0 0 0 0 0 0 0 0 0 0 0 127 0" result="hardAlpha"/>
<feOffset dy="4"/>
<feGaussianBlur stdDeviation="2"/>
<feComposite in2="hardAlpha" operator="out"/>
<feColorMatrix type="matrix" values="0 0 0 0 0 0 0 0 0 0 0 0 0 0 0 0 0 0 0.25 0"/>
<feBlend mode="normal" in2="BackgroundImageFix" result="effect1_dropShadow_2622_1031"/>
<feBlend mode="normal" in="SourceGraphic" in2="effect1_dropShadow_2622_1031" result="shape"/>
</filter>
<filter id="filter4_f_2622_1031" x="92.0974" y="50.1219" width="69.1221" height="69.1219" filterUnits="userSpaceOnUse" color-interpolation-filters="sRGB">
<feFlood flood-opacity="0" result="BackgroundImageFix"/>
<feBlend mode="normal" in="SourceGraphic" in2="BackgroundImageFix" result="shape"/>
<feGaussianBlur stdDeviation="2" result="effect1_foregroundBlur_2622_1031"/>
</filter>
<filter id="filter5_i_2622_1031" x="122.307" y="79.5886" width="8.7334" height="8.73352" filterUnits="userSpaceOnUse" color-interpolation-filters="sRGB">
<feFlood flood-opacity="0" result="BackgroundImageFix"/>
<feBlend mode="normal" in="SourceGraphic" in2="BackgroundImageFix" result="shape"/>
<feColorMatrix in="SourceAlpha" type="matrix" values="0 0 0 0 0 0 0 0 0 0 0 0 0 0 0 0 0 0 127 0" result="hardAlpha"/>
<feOffset dx="-1" dy="1"/>
<feGaussianBlur stdDeviation="1.5"/>
<feComposite in2="hardAlpha" operator="arithmetic" k2="-1" k3="1"/>
<feColorMatrix type="matrix" values="0 0 0 0 0 0 0 0 0 0 0 0 0 0 0 0 0 0 0.25 0"/>
<feBlend mode="normal" in2="shape" result="effect1_innerShadow_2622_1031"/>
</filter>
<filter id="filter6_d_2622_1031" x="124" y="42" width="133" height="134" filterUnits="userSpaceOnUse" color-interpolation-filters="sRGB">
<feFlood flood-opacity="0" result="BackgroundImageFix"/>
<feColorMatrix in="SourceAlpha" type="matrix" values="0 0 0 0 0 0 0 0 0 0 0 0 0 0 0 0 0 0 127 0" result="hardAlpha"/>
<feOffset dy="4"/>
<feGaussianBlur stdDeviation="2"/>
<feComposite in2="hardAlpha" operator="out"/>
<feColorMatrix type="matrix" values="0 0 0 0 0 0 0 0 0 0 0 0 0 0 0 0 0 0 0.25 0"/>
<feBlend mode="normal" in2="BackgroundImageFix" result="effect1_dropShadow_2622_1031"/>
<feBlend mode="normal" in="SourceGraphic" in2="effect1_dropShadow_2622_1031" result="shape"/>
</filter>
<filter id="filter7_f_2622_1031" x="155.843" y="71.1219" width="68.637" height="69.1219" filterUnits="userSpaceOnUse" color-interpolation-filters="sRGB">
<feFlood flood-opacity="0" result="BackgroundImageFix"/>
<feBlend mode="normal" in="SourceGraphic" in2="BackgroundImageFix" result="shape"/>
<feGaussianBlur stdDeviation="2" result="effect1_foregroundBlur_2622_1031"/>
</filter>
<filter id="filter8_i_2622_1031" x="185.837" y="100.589" width="8.67212" height="8.73352" filterUnits="userSpaceOnUse" color-interpolation-filters="sRGB">
<feFlood flood-opacity="0" result="BackgroundImageFix"/>
<feBlend mode="normal" in="SourceGraphic" in2="BackgroundImageFix" result="shape"/>
<feColorMatrix in="SourceAlpha" type="matrix" values="0 0 0 0 0 0 0 0 0 0 0 0 0 0 0 0 0 0 127 0" result="hardAlpha"/>
<feOffset dx="-1" dy="1"/>
<feGaussianBlur stdDeviation="1.5"/>
<feComposite in2="hardAlpha" operator="arithmetic" k2="-1" k3="1"/>
<feColorMatrix type="matrix" values="0 0 0 0 0 0 0 0 0 0 0 0 0 0 0 0 0 0 0.25 0"/>
<feBlend mode="normal" in2="shape" result="effect1_innerShadow_2622_1031"/>
</filter>
<linearGradient id="paint0_linear_2622_1031" x1="63.5" y1="0" x2="63.5" y2="31.9268" gradientUnits="userSpaceOnUse">
<stop stop-color="#E9E9E9"/>
<stop offset="0.120192" stop-color="#EFEFEF"/>
<stop offset="1" stop-color="#F8F8F8"/>
</linearGradient>
<linearGradient id="paint1_linear_2622_1031" x1="30.3019" y1="15.1951" x2="96.3993" y2="112.365" gradientUnits="userSpaceOnUse">
<stop stop-color="#2F2F2F"/>
<stop offset="0.158654" stop-color="#2F2F2F"/>
<stop offset="0.485577" stop-color="#959595"/>
<stop offset="0.846154" stop-color="#2F2F2F"/>
<stop offset="1" stop-color="#2F2F2F"/>
</linearGradient>
<linearGradient id="paint2_linear_2622_1031" x1="63.1612" y1="33.1219" x2="63.1612" y2="94.2439" gradientUnits="userSpaceOnUse">
<stop stop-color="#B4E6F1"/>
<stop offset="1" stop-color="#A0DCEA"/>
</linearGradient>
<linearGradient id="paint3_linear_2622_1031" x1="127" y1="21" x2="127" y2="52.9268" gradientUnits="userSpaceOnUse">
<stop stop-color="#E9E9E9"/>
<stop offset="0.120192" stop-color="#EFEFEF"/>
<stop offset="1" stop-color="#F8F8F8"/>
</linearGradient>
<linearGradient id="paint4_linear_2622_1031" x1="93.5363" y1="36.1951" x2="159.439" y2="133.854" gradientUnits="userSpaceOnUse">
<stop stop-color="#2F2F2F"/>
<stop offset="0.158654" stop-color="#2F2F2F"/>
<stop offset="0.485577" stop-color="#959595"/>
<stop offset="0.846154" stop-color="#2F2F2F"/>
<stop offset="1" stop-color="#2F2F2F"/>
</linearGradient>
<linearGradient id="paint5_linear_2622_1031" x1="190.5" y1="42" x2="190.5" y2="73.9268" gradientUnits="userSpaceOnUse">
<stop stop-color="#E9E9E9"/>
<stop offset="0.120192" stop-color="#EFEFEF"/>
<stop offset="1" stop-color="#F8F8F8"/>
</linearGradient>
<linearGradient id="paint6_linear_2622_1031" x1="157.302" y1="57.1951" x2="223.399" y2="154.365" gradientUnits="userSpaceOnUse">
<stop stop-color="#2F2F2F"/>
<stop offset="0.158654" stop-color="#2F2F2F"/>
<stop offset="0.485577" stop-color="#959595"/>
<stop offset="0.846154" stop-color="#2F2F2F"/>
<stop offset="1" stop-color="#2F2F2F"/>
</linearGradient>
</defs>
</svg>
