<svg width="32" height="36" viewBox="0 0 32 36" fill="none" xmlns="http://www.w3.org/2000/svg">
<path d="M19.7697 30.3885C25.771 27.4033 28.7766 21.2399 26.4829 16.6221C24.1892 12.0043 17.4648 10.6807 11.4635 13.6658C5.46217 16.6509 2.45658 22.8143 4.75027 27.4321C7.04397 32.05 13.7684 33.3736 19.7697 30.3885Z" fill="#C06379"/>
<path d="M19.1118 1.74336L17.0894 2.74933L24.1541 16.9725L26.1765 15.9666L19.1118 1.74336Z" fill="#C06379"/>
<path d="M16.064 0.809049L21.2003 1.32538C22.481 1.45478 23.7716 1.43999 25.0486 1.28102C25.4205 1.23543 26.1445 1.00869 26.4955 0.878066L27.8538 0.372803L29.334 3.07282L27.4523 3.66926C27.2134 3.7395 26.2332 3.99336 25.9906 4.04389C24.7112 4.3113 23.3553 4.36182 22.0746 4.22504L17.6365 3.86397L16.0652 0.809049H16.064Z" fill="#C06379"/>
<path d="M18.1665 5.03224L23.3028 5.54857C24.6254 5.57692 25.8458 5.48572 27.0661 5.20845C27.4319 5.12589 28.1621 4.93612 28.5131 4.8055L29.8714 4.30023L31.3516 7.00025L29.4638 7.55973C29.2249 7.62997 28.2434 7.87396 28.002 7.93434C26.7669 8.24489 25.4579 8.58624 24.1759 8.44822L19.7378 8.08716L18.1665 5.03224Z" fill="#C06379"/>
</svg>
